<svg xmlns="http://www.w3.org/2000/svg" viewBox="0 0 512 512" role="img" aria-labelledby="title desc">
  <title id="title">Ícono de QuitoCare</title>
  <desc id="desc">Ícono verde con un marcador de ubicación y una cruz médica</desc>

  <rect width="512" height="512" rx="112" fill="#2ECC71"/>

  <path
    fill="#FFFFFF"
    fill-rule="evenodd"
    d="M256 84c-86.2 0-156 69.8-156 156 0 104.5 122.6 180.4 144.6 193.1a22.8 22.8 0 0 0 22.8 0C289.4 420.4 412 344.5 412 240c0-86.2-69.8-156-156-156Zm0 266.8c-12.4-10.1-29.7-25.2-46.8-43.5C180.5 276.5 164 252.6 164 240a92 92 0 1 1 184 0c0 12.6-16.5 36.5-45.2 67.3-17.1 18.3-34.4 33.4-46.8 43.5Z"
  />

  <path
    fill="#FFFFFF"
    d="M236 170h40v50h50v40h-50v50h-40v-50h-50v-40h50v-50Z"
  />
</svg>
